<svg width="303" height="303" viewBox="0 0 303 303" fill="none" xmlns="http://www.w3.org/2000/svg">
<circle cx="151" cy="152" r="139" fill="#FFAE4F"/>
<ellipse cx="151" cy="144.5" rx="139" ry="132.5" fill="#FFE15F"/>
<path d="M97 196C97 196 110.339 219 152.262 219C194.185 219 208 196 208 196" stroke="#404148" stroke-width="14" stroke-linecap="round"/>
<circle cx="151" cy="152" r="145" stroke="#404148" stroke-width="12"/>
<line x1="18" y1="98" x2="286" y2="98" stroke="#404148" stroke-width="14"/>
<path d="M34 105H144L136.885 153.026C136.377 156.458 133.43 159 129.961 159H49.7874C44.7615 159 40.5164 155.27 39.8703 150.286L34 105Z" fill="#404148"/>
<path d="M161 105H271L263.885 153.026C263.377 156.458 260.43 159 256.961 159H176.787C171.761 159 167.516 155.27 166.87 150.286L161 105Z" fill="#404148"/>
<path d="M47 105H131L124.418 144.493C124.177 145.94 122.925 147 121.459 147H57.3365C54.8482 147 52.7386 145.17 52.3867 142.707L47 105Z" fill="white"/>
<path d="M174 105H258L251.418 144.493C251.177 145.94 249.925 147 248.459 147H184.336C181.848 147 179.739 145.17 179.387 142.707L174 105Z" fill="white"/>
<path d="M46 105H111L103.891 147H55.6442C54.1806 147 52.9306 145.944 52.6863 144.501L46 105Z" fill="black"/>
<path d="M173 105H238L230.891 147H182.644C181.181 147 179.931 145.944 179.686 144.501L173 105Z" fill="black"/>
</svg>
