<svg width="303" height="303" viewBox="0 0 303 303" fill="none" xmlns="http://www.w3.org/2000/svg">
<path d="M151.5 8C63.5 8 7 83.9791 7 155.5C7 207.172 45.6632 250.278 92.7077 268.506C93.4842 268.807 94 269.551 94 270.384V282.5C94 289.68 99.8203 295.5 107 295.5H119C126.18 295.5 132 289.68 132 282.5V280.5C132 289.337 139.163 296 148 296H154.5C163.337 296 170.5 289.554 170.5 280.717V282V283C170.5 290.18 176.82 296 184 296H196C203.18 296 209 290.18 209 283V271.076C209 269.827 209.774 268.712 210.937 268.255C257.689 249.884 296 206.936 296 155.5C296 83.9791 239.5 8 151.5 8Z" fill="#FFAE4F"/>
<path d="M153.5 9C65.5 9 9 78.9114 9 144.72C9 192.49 48.0291 232.304 95.3746 248.938C95.7803 249.081 96.1307 249.348 96.3727 249.704L101 256.5C106 263.422 111.82 264.54 119 264.54H121C128.18 264.54 134 264.106 134 257.5C134 265.631 141.163 265 150 265H156.5C165.337 265 173 264.95 173 256.819V258V258.92C173 265.526 178.82 265 186 265C193.18 265 202.587 262.761 208 255.038C208.937 253.701 209.89 251.699 210.463 250.41C210.816 249.618 211.471 248.995 212.288 248.704C259.335 231.932 298 192.267 298 144.72C298 78.9114 241.5 9 153.5 9Z" fill="#FFE15F"/>
<path d="M151.5 8C63.5 8 7 83.9791 7 155.5C7 207.172 45.6632 250.278 92.7077 268.506C93.4842 268.807 94 269.551 94 270.384V282.5C94 289.68 99.8203 295.5 107 295.5H119C126.18 295.5 132 289.68 132 282.5V280.5C132 289.337 139.163 296 148 296H154.5C163.337 296 170.5 289.554 170.5 280.717V282V283C170.5 290.18 176.82 296 184 296H196C203.18 296 209 290.18 209 283V271.076C209 269.827 209.774 268.712 210.937 268.255C257.689 249.884 296 206.936 296 155.5C296 83.9791 239.5 8 151.5 8Z" stroke="#404148" stroke-width="12" stroke-linejoin="round"/>
<path d="M82.3535 113.646L108.354 139.646" stroke="#404148" stroke-width="11" stroke-linecap="round"/>
<path d="M194.354 113.646L220.354 139.646" stroke="#404148" stroke-width="11" stroke-linecap="round"/>
<path d="M108 114L82 140" stroke="#404148" stroke-width="11" stroke-linecap="round"/>
<path d="M220 114L194 140" stroke="#404148" stroke-width="11" stroke-linecap="round"/>
<ellipse cx="142" cy="175.5" rx="9" ry="12.5" fill="#404148"/>
<ellipse cx="166" cy="175.5" rx="9" ry="12.5" fill="#404148"/>
</svg>
