<?xml version="1.0" encoding="iso-8859-1"?>
<!-- Uploaded to: SVG Repo, www.svgrepo.com, Generator: SVG Repo Mixer Tools -->
<svg fill="#000000" height="800px" width="800px" version="1.1" id="Capa_1" xmlns="http://www.w3.org/2000/svg" xmlns:xlink="http://www.w3.org/1999/xlink" 
	 viewBox="0 0 612 612" xml:space="preserve">
<g>
	<g>
		<g>
			<path d="M330.774,124.118V22.888C330.774,10.245,320.53,0,307.886,0c-12.643,0-22.888,10.245-22.888,22.888v101.229
				C160.871,135.699,63.396,240.416,63.396,367.509C63.396,502.32,173.066,612,307.886,612s244.491-109.68,244.491-244.491
				C552.377,240.416,454.883,135.699,330.774,124.118z M485.672,456.132h-43.387v-65.735h62.961
				C502.536,413.771,495.779,435.927,485.672,456.132z M130.101,278.887h43.387v65.735h-62.961
				C113.218,321.239,119.984,299.092,130.101,278.887z M284.998,344.621h-65.735v-65.735h65.735V344.621z M330.774,278.887h65.735
				v65.735h-65.735L330.774,278.887L330.774,278.887z M110.527,390.398h62.961v65.735h-43.387
				C119.984,435.927,113.228,413.771,110.527,390.398z M219.264,390.398h65.735v65.735h-65.735V390.398z M284.998,501.908v62.951
				c-23.382-2.692-45.529-9.457-65.735-19.574v-43.387h65.735V501.908z M330.774,501.908h65.735v43.387
				c-20.206,10.107-42.352,16.873-65.735,19.574L330.774,501.908L330.774,501.908z M330.774,456.132v-65.735h65.735v65.735
				L330.774,456.132L330.774,456.132z M442.276,344.621v-65.735h43.387c10.107,20.206,16.873,42.352,19.574,65.735L442.276,344.621
				L442.276,344.621z M454.095,233.111h-11.819v-11.819C446.387,225.063,450.323,229.009,454.095,233.111z M396.5,189.724v43.387
				h-65.735V170.15C354.148,172.842,376.294,179.607,396.5,189.724z M284.998,233.111h-65.735v-43.387
				c20.206-10.117,42.352-16.873,65.735-19.574V233.111z M173.487,221.291v11.819h-11.819
				C165.44,229.009,169.386,225.063,173.487,221.291z M161.668,501.908h11.819v11.819
				C169.386,509.947,165.44,506.01,161.668,501.908z M442.276,513.719V501.9h11.81C450.314,506.01,446.387,509.947,442.276,513.719z
				"/>
			<path d="M367.533,96.533l24.472,5.878l-5.539,9.036c-1.099,1.804-0.824,4.129,0.668,5.63c1.501,1.501,3.827,1.767,5.63,0.668
				l9.027-5.53l5.878,24.454c0.494,2.06,2.335,3.506,4.449,3.506c2.115,0,3.964-1.447,4.449-3.506l5.878-24.454l9.027,5.53
				c0.742,0.458,1.575,0.677,2.399,0.677c1.181,0,2.353-0.458,3.232-1.337c1.492-1.501,1.767-3.818,0.668-5.63l-5.539-9.036
				l24.472-5.878c2.06-0.494,3.506-2.335,3.506-4.449s-1.447-3.955-3.506-4.449l-24.463-5.887l5.539-9.036
				c1.099-1.804,0.824-4.129-0.668-5.63c-1.501-1.511-3.836-1.785-5.63-0.668l-9.036,5.539l-5.878-24.463
				c-0.98-4.12-7.919-4.111-8.908,0l-5.869,24.463l-9.027-5.53c-1.804-1.117-4.129-0.842-5.63,0.668
				c-1.492,1.501-1.767,3.827-0.668,5.63l5.539,9.036l-24.463,5.869c-2.069,0.494-3.516,2.335-3.516,4.449
				C364.026,94.189,365.482,96.038,367.533,96.533z"/>
			<path d="M151.789,101.733l24.472,5.878l-5.548,9.036c-1.099,1.804-0.824,4.129,0.668,5.63s3.827,1.776,5.63,0.668l9.027-5.53
				l5.878,24.454c0.494,2.06,2.335,3.506,4.449,3.506c2.124,0,3.964-1.447,4.449-3.506l5.878-24.454l9.027,5.53
				c0.742,0.458,1.575,0.677,2.399,0.677c1.181,0,2.353-0.458,3.241-1.337c1.492-1.492,1.767-3.827,0.668-5.63l-5.548-9.036
				l24.472-5.878c2.06-0.494,3.506-2.335,3.506-4.449s-1.447-3.955-3.506-4.449l-24.472-5.878l5.548-9.036
				c1.099-1.804,0.824-4.129-0.668-5.63c-1.501-1.501-3.827-1.776-5.63-0.668l-9.018,5.53l-5.887-24.463
				c-0.98-4.12-7.919-4.111-8.908,0l-5.877,24.462l-9.027-5.53c-1.804-1.117-4.138-0.833-5.63,0.668
				c-1.492,1.492-1.767,3.818-0.668,5.63l5.548,9.036l-24.463,5.87c-2.069,0.494-3.516,2.335-3.516,4.449
				C148.283,99.389,149.73,101.239,151.789,101.733z"/>
			<path d="M93.782,196.471c0.742,0.458,1.575,0.677,2.399,0.677c1.181,0,2.353-0.458,3.232-1.346
				c1.492-1.501,1.767-3.818,0.668-5.63l-11.874-19.363l11.874-19.363c1.099-1.804,0.824-4.129-0.668-5.63
				c-1.501-1.511-3.836-1.776-5.63-0.668l-19.354,11.874l-19.354-11.865c-1.813-1.117-4.129-0.842-5.63,0.668
				c-1.492,1.501-1.767,3.818-0.668,5.63l11.874,19.363l-11.874,19.363c-1.099,1.804-0.824,4.129,0.668,5.63
				c1.501,1.501,3.818,1.767,5.63,0.668l19.354-11.865L93.782,196.471z"/>
			<path d="M563.757,166.515c-0.513-2.042-2.344-3.47-4.44-3.47c0,0-0.027,0-0.037,0l-22.705,0.192l-10.464-20.132
				c-0.961-1.877-3.122-2.829-5.154-2.335c-2.06,0.513-3.497,2.362-3.479,4.477l0.183,22.696l-20.16,10.492
				c-1.877,0.97-2.847,3.113-2.335,5.164c0.513,2.042,2.344,3.47,4.44,3.47c0.009,0,0.027,0,0.027,0l22.705-0.192l10.474,20.132
				c0.797,1.538,2.38,2.463,4.056,2.463c0.366,0,0.732-0.046,1.099-0.137c2.06-0.513,3.497-2.362,3.479-4.477l-0.183-22.705
				l20.151-10.483C563.299,170.709,564.269,168.575,563.757,166.515z"/>
		</g>
	</g>
	<g>
	</g>
	<g>
	</g>
	<g>
	</g>
	<g>
	</g>
	<g>
	</g>
	<g>
	</g>
	<g>
	</g>
	<g>
	</g>
	<g>
	</g>
	<g>
	</g>
	<g>
	</g>
	<g>
	</g>
	<g>
	</g>
	<g>
	</g>
	<g>
	</g>
</g>
</svg>