<svg width="326" height="326" viewBox="0 0 326 326" fill="none" xmlns="http://www.w3.org/2000/svg">
<g clip-path="url(#clip0_595_236)">
<circle cx="156.283" cy="156.283" r="139" transform="rotate(-45 156.283 156.283)" fill="#FFAE4F"/>
<ellipse cx="150.979" cy="150.979" rx="139" ry="132.5" transform="rotate(-45 150.979 150.979)" fill="#FFE15F"/>
<circle cx="156.283" cy="156.283" r="145" transform="rotate(-45 156.283 156.283)" stroke="#404148" stroke-width="12"/>
<path d="M80.9297 157L102.93 157" stroke="#404148" stroke-width="11" stroke-linecap="round"/>
<path d="M182.93 111L204.93 111" stroke="#404148" stroke-width="11" stroke-linecap="round"/>
<path d="M91.9297 176L102.93 157" stroke="#404148" stroke-width="11" stroke-linecap="round"/>
<path d="M182.93 111L193.93 92" stroke="#404148" stroke-width="11" stroke-linecap="round"/>
<path d="M147.43 239.5C200.725 239.5 243.93 197.639 243.93 146C243.93 143.305 243.812 140.637 243.581 138L94.4297 224.148C109.641 233.853 127.855 239.5 147.43 239.5Z" fill="#FF7673"/>
<ellipse cx="188.262" cy="221.231" rx="51.0799" ry="13.5" transform="rotate(-30 188.262 221.231)" fill="#FFA6A4"/>
<path d="M250.057 137.434L249.168 127.267L240.33 132.371L91.1787 218.52L81.9116 223.872L90.9337 229.628C107.168 239.985 126.591 246 147.43 246C204.12 246 250.43 201.42 250.43 146C250.43 143.116 250.304 140.259 250.057 137.434Z" stroke="#404148" stroke-width="13"/>
<path d="M140.887 245.181C150.356 231.17 165.645 217.128 184.911 206.005C204.73 194.562 225.119 188.308 242.295 187.377" stroke="#404148" stroke-width="11"/>
<path d="M94.5577 210.407C94.5576 210.408 94.5531 210.413 94.5444 210.424C94.5534 210.413 94.5577 210.407 94.5577 210.407ZM85.7814 211.025C85.7814 211.025 85.7832 211.027 85.787 211.031C85.7833 211.027 85.7814 211.025 85.7814 211.025ZM94.9287 301.5C115.437 301.5 132.429 285.358 132.429 265C132.429 259.125 129.518 252.12 126.203 245.78C122.724 239.125 118.141 232.013 113.617 225.556C109.077 219.079 104.508 213.136 100.991 208.796C99.2358 206.63 97.7128 204.827 96.565 203.536C96.0013 202.902 95.4704 202.327 95.0194 201.877C94.8082 201.667 94.5118 201.38 94.1809 201.107C94.0276 200.981 93.7267 200.74 93.3311 200.497C93.1331 200.375 92.7912 200.177 92.3424 199.993C91.9703 199.84 91.0609 199.5 89.8467 199.5C87.6883 199.5 86.2267 200.575 85.9931 200.747C85.9849 200.753 85.9782 200.758 85.9731 200.761C85.5124 201.094 85.1821 201.421 85.0222 201.586C84.6777 201.939 84.3956 202.295 84.2188 202.526C83.8339 203.028 83.4104 203.646 82.9881 204.289C82.1219 205.609 81.0015 207.435 79.7311 209.605C77.1813 213.96 73.9071 219.907 70.6689 226.378C67.4379 232.835 64.1897 239.92 61.7336 246.526C59.3551 252.924 57.4287 259.615 57.4287 265C57.4287 285.358 74.4206 301.5 94.9287 301.5Z" stroke="#404148" stroke-width="13"/>
<path d="M238.509 123.247C238.509 123.247 238.511 123.254 238.514 123.268C238.511 123.253 238.509 123.247 238.509 123.247ZM233.508 130.485C233.508 130.485 233.51 130.485 233.516 130.484C233.511 130.485 233.508 130.485 233.508 130.485ZM309.861 179.876C322.676 163.865 320.69 140.512 304.796 127.791C300.209 124.121 292.921 122.016 285.9 120.642C278.53 119.2 270.114 118.334 262.246 117.832C254.352 117.329 246.858 117.183 241.272 117.217C238.484 117.234 236.124 117.296 234.399 117.386C233.552 117.43 232.771 117.485 232.138 117.556C231.842 117.59 231.433 117.642 231.013 117.73C230.818 117.77 230.442 117.855 230.005 118.012C229.786 118.09 229.418 118.233 228.994 118.469C228.643 118.664 227.808 119.161 227.05 120.109C225.701 121.794 225.627 123.607 225.615 123.897C225.615 123.907 225.614 123.915 225.614 123.922C225.586 124.489 225.635 124.952 225.663 125.179C225.724 125.669 225.826 126.112 225.896 126.394C226.047 127.008 226.265 127.725 226.503 128.457C226.992 129.958 227.718 131.973 228.618 134.321C230.425 139.033 233.022 145.305 236.051 151.877C239.074 158.435 242.576 165.398 246.199 171.443C249.707 177.297 253.728 182.982 257.932 186.347C273.826 199.068 297.047 195.888 309.861 179.876Z" stroke="#404148" stroke-width="13"/>
<path d="M125.929 265C125.929 281.569 112.05 295 94.9287 295C77.8079 295 63.9287 281.569 63.9287 265C63.9287 248.431 88.7643 206 89.8467 206C90.9292 206 125.929 248.431 125.929 265Z" fill="#B0FFFB"/>
<path d="M300.734 132.866C313.67 143.219 315.484 162.448 304.786 175.815C294.088 189.182 274.929 191.625 261.994 181.272C249.058 170.92 231.448 125.016 232.125 124.171C232.801 123.326 287.799 122.513 300.734 132.866Z" fill="#B0FFFB"/>
<path d="M99.9297 280C86.6749 280 75.9297 271.046 75.9297 260" stroke="white" stroke-width="13" stroke-linecap="round"/>
<path d="M296.199 162.538C287.917 172.887 274.212 175.681 265.588 168.779" stroke="white" stroke-width="13" stroke-linecap="round"/>
</g>
<defs>
<clipPath id="clip0_595_236">
<rect width="326" height="326" fill="white"/>
</clipPath>
</defs>
</svg>
