<svg width="400" height="380" viewBox="0 0 400 380" fill="none" xmlns="http://www.w3.org/2000/svg">
<circle cx="190" cy="217" r="139" fill="#FFAE4F"/>
<ellipse cx="190" cy="209.5" rx="139" ry="132.5" fill="#FFE15F"/>
<path d="M136 261C136 261 149.339 284 191.262 284C233.185 284 247 261 247 261" stroke="#404148" stroke-width="14" stroke-linecap="round"/>
<circle cx="190" cy="217" r="145" stroke="#404148" stroke-width="12"/>
<ellipse cx="131" cy="178.5" rx="15" ry="19.5" fill="#404148"/>
<ellipse cx="248" cy="178.5" rx="15" ry="19.5" fill="#404148"/>
<path d="M131.731 94.2857L131.742 94.2965L131.752 94.3074C132.774 95.3256 133.988 96.1329 135.324 96.6814C136.649 97.2251 138.068 97.5033 139.5 97.5C140.932 97.5033 142.351 97.2251 143.676 96.6814C145.012 96.1329 146.226 95.3256 147.248 94.3074L147.258 94.2965L147.269 94.2857L181.841 59.5036L181.851 59.4931L181.862 59.4825C184.055 57.2556 186.866 54.3069 189.127 50.9628C191.354 47.6683 193.5 43.3405 193.5 38.3797C193.5 30.4829 190.399 22.899 184.862 17.2769L184.847 17.2616L184.832 17.2464C179.245 11.6489 171.671 8.5 163.768 8.5C155.968 8.5 147.323 12.0274 141.72 17.5242C141.704 17.5383 141.686 17.5535 141.667 17.5696C141.521 17.694 141.309 17.874 141.05 18.0908C140.571 18.4919 139.948 19.0072 139.301 19.5246C138.913 19.1582 138.464 18.7219 137.946 18.2032C132.7 12.9461 124.562 8.5 116.232 8.5C108.329 8.5 100.755 11.6489 95.1684 17.2464L95.1532 17.2616L95.1381 17.2769C89.6007 22.899 86.5 30.4829 86.5 38.3797C86.5 47.3763 92.6952 54.9717 97.1381 59.4825L97.1485 59.4931L97.1589 59.5036L131.731 94.2857Z" stroke="#404148" stroke-width="13"/>
<path d="M309.046 312.672L309.054 312.685L309.062 312.698C309.849 314.009 310.888 315.154 312.12 316.063C313.342 316.966 314.729 317.619 316.204 317.986C317.676 318.361 319.208 318.442 320.711 318.226C322.227 318.008 323.684 317.492 324.998 316.709L325.011 316.701L325.024 316.694L373.281 287.647L373.294 287.639L373.306 287.631C376.369 285.769 380.26 283.311 383.644 280.284C386.984 277.297 390.427 273.237 391.75 267.98C393.902 259.43 392.612 250.374 388.149 242.779L388.139 242.76L388.128 242.742C383.606 235.161 376.266 229.69 367.713 227.537C359.26 225.409 348.886 226.884 341.321 231.321C341.29 231.336 341.256 231.353 341.218 231.372C341.019 231.47 340.729 231.612 340.378 231.782C339.671 232.125 338.731 232.572 337.773 233.004C337.595 233.085 337.42 233.163 337.248 233.239C336.814 232.586 336.285 231.744 335.64 230.663C331.364 223.495 323.735 216.467 314.769 214.21C306.216 212.057 297.161 213.401 289.589 217.938L289.57 217.949L289.552 217.96C282.025 222.537 276.601 229.903 274.449 238.453C272.028 248.069 276.605 257.964 280.277 264.214L280.285 264.227L280.292 264.24L309.046 312.672Z" stroke="#404148" stroke-width="13"/>
<path d="M68.9774 367.294L68.9775 367.294C70.3845 367.494 71.817 367.414 73.194 367.061C74.5726 366.714 75.8691 366.1 77.0103 365.253L77.0103 365.253C78.1617 364.399 79.1314 363.326 79.8652 362.097L79.8731 362.084L79.8809 362.07L104.355 320.635L104.362 320.622L104.37 320.609C105.918 317.96 107.883 314.468 109.229 310.73C110.555 307.048 111.558 302.387 110.351 297.635C108.434 290.093 103.633 283.603 96.9801 279.578L96.9618 279.567L96.9433 279.556C90.2496 275.566 82.2519 274.397 74.7044 276.315C67.2569 278.208 59.8617 283.67 55.8448 290.277C55.8332 290.294 55.8208 290.311 55.8077 290.33C55.699 290.483 55.5407 290.706 55.3473 290.974C55.0049 291.449 54.5623 292.055 54.0954 292.674C53.6602 292.43 53.1594 292.141 52.5835 291.798C46.3029 288.054 37.4554 285.781 29.4941 287.804C21.9466 289.722 15.4774 294.568 11.5006 301.269L11.4897 301.288L11.4788 301.306C7.55499 308.019 6.43445 316.014 8.35086 323.555C10.5381 332.163 18.3055 337.911 23.6236 341.129L23.6363 341.136L23.649 341.144L64.9357 365.868L64.9488 365.876L64.962 365.884C66.1935 366.614 67.5579 367.094 68.9774 367.294Z" stroke="#404148" stroke-width="13"/>
<path d="M139.5 90.9999C138.914 91.0033 138.334 90.8906 137.792 90.6681C137.25 90.4456 136.757 90.1178 136.341 89.7034L101.769 54.9213C97.4325 50.5185 93 44.5742 93 38.3797C93 32.1852 95.4325 26.2409 99.769 21.8381C104.14 17.4591 110.06 15 116.232 15C122.404 15 128.975 18.4159 133.346 22.7949C137.716 27.1739 138.553 27.1536 139.5 27.1795C140.447 27.2054 146.128 22.3077 146.128 22.3077C150.498 17.9287 157.596 15 163.768 15C169.94 15 175.86 17.4591 180.231 21.8381C184.568 26.2409 187 32.1852 187 38.3797C187 44.5742 181.568 50.5185 177.231 54.9213L142.659 89.7034C142.243 90.1178 141.75 90.4456 141.208 90.6681C140.666 90.8906 140.086 91.0033 139.5 90.9999Z" fill="#FF7673"/>
<path d="M317.79 311.683C317.137 311.523 316.522 311.234 315.981 310.834C315.439 310.435 314.982 309.931 314.635 309.353L285.882 260.922C282.286 254.802 279.016 246.939 280.752 240.04C282.489 233.14 286.865 227.202 292.929 223.514C299.025 219.862 306.308 218.783 313.182 220.513C320.056 222.244 326.418 227.89 330.058 233.993C333.698 240.095 334.636 240.307 335.683 240.602C336.73 240.896 344.43 237.034 344.43 237.034C350.526 233.382 359.252 232.11 366.127 233.84C373.001 235.571 378.905 239.969 382.545 246.072C386.141 252.191 387.183 259.494 385.447 266.393C383.71 273.292 375.993 278.39 369.929 282.078L321.672 311.125C321.093 311.47 320.452 311.696 319.786 311.792C319.12 311.888 318.442 311.851 317.79 311.683Z" fill="#FF7673"/>
<path d="M71.593 360.761C71.0369 360.906 70.4576 360.939 69.8883 360.859C69.3189 360.778 68.7707 360.585 68.2752 360.292L26.9885 335.567C21.8 332.428 16.1478 327.846 14.6506 321.954C13.1535 316.063 14.0303 309.822 17.0905 304.586C20.1888 299.365 25.225 295.596 31.0951 294.104C36.9651 292.612 44.0405 294.273 49.2555 297.381C54.4705 300.49 55.2616 300.268 56.1683 300.064C57.0751 299.859 61.2942 293.828 61.2942 293.828C64.3925 288.607 70.4353 284.107 76.3053 282.615C82.1754 281.123 88.4003 282.031 93.6153 285.139C98.8038 288.279 102.554 293.344 104.051 299.236C105.548 305.127 101.818 312.093 98.7579 317.329L74.2842 358.765C73.9889 359.259 73.5992 359.69 73.1374 360.033C72.6756 360.375 72.1508 360.623 71.593 360.761Z" fill="#FF7673"/>
<path d="M117.243 47.7573L139.243 69.7573" stroke="white" stroke-width="12" stroke-linecap="round"/>
<path d="M305.124 257.281L323.459 287.952" stroke="white" stroke-width="12" stroke-linecap="round"/>
<path d="M39.9736 325.014L66.2143 340.62" stroke="white" stroke-width="12" stroke-linecap="round"/>
</svg>
