<svg width="303" height="303" viewBox="0 0 303 303" fill="none" xmlns="http://www.w3.org/2000/svg">
	<g clipPath="url(#clip0_595_231)">
	<circle cx="151" cy="152" r="139" fill="#FFAE4F"/>
	<ellipse cx="151" cy="144.5" rx="139" ry="132.5" fill="#FFE15F"/>
	<circle cx="151" cy="152" r="145" stroke="#404148" strokeWidth="12"/>
	<path d="M85.9033 151.898L85.8898 151.891L29.1869 121.42L29.1738 121.413L29.1608 121.406C21.8998 117.461 11.8957 110.623 8.71351 100.164C5.85147 90.7563 6.79716 80.5992 11.3549 71.8974L11.3648 71.8784L11.3749 71.8594C15.9991 63.171 23.8756 56.6798 33.2821 53.818C43.0971 50.832 54.453 53.1407 62.7083 57.555C64.4328 58.4771 65.6713 59.0824 66.5496 59.4771C66.8152 59.108 67.0943 58.7113 67.3793 58.2988C68.0682 57.3016 68.7296 56.3027 69.2229 55.5463C69.4683 55.1701 69.6692 54.8584 69.8075 54.6425C69.8411 54.5901 69.871 54.5434 69.8968 54.5029C74.5662 45.9031 83.6675 38.4893 92.9772 35.657C102.384 32.7953 112.541 33.8001 121.22 38.4412L121.239 38.4513L121.258 38.4616C129.89 43.1508 136.332 51.0603 139.194 60.4678C140.919 66.1402 139.996 71.9364 138.511 76.75C137.009 81.6208 134.683 86.2558 132.785 89.8803L132.778 89.8935L132.771 89.9065L102.645 146.793L102.638 146.807L102.631 146.82C101.863 148.253 100.819 149.522 99.5586 150.551L85.9033 151.898ZM85.9033 151.898L85.9168 151.905L85.9033 151.898ZM95.3209 152.805C96.8678 152.339 98.3075 151.573 99.5585 150.551L95.3209 152.805ZM95.3209 152.805C93.7766 153.279 92.1544 153.445 90.5464 153.293C90.5463 153.293 90.5463 153.293 90.5463 153.293L95.3209 152.805Z" stroke="#404148" strokeWidth="13"/>
	<path d="M198.867 146.756L198.86 146.742L169.721 89.3435L169.714 89.3303L169.708 89.3171C166.001 81.9319 161.695 70.6051 165.057 60.2019C168.081 50.8453 174.659 43.0482 183.37 38.5089L183.39 38.499L183.409 38.4892C192.167 33.9987 202.34 33.1696 211.696 36.1934C221.457 39.3486 229.46 47.7299 233.715 56.0685C234.604 57.8104 235.274 59.0146 235.77 59.8403C236.199 59.6891 236.654 59.5228 237.124 59.347C238.259 58.922 239.372 58.4799 240.209 58.1408C240.626 57.9721 240.969 57.831 241.205 57.7328C241.263 57.709 241.314 57.6877 241.359 57.6692C250.103 53.2774 261.808 52.3905 271.068 55.3832C280.424 58.4071 288.187 65.0334 292.66 73.8004L292.67 73.8195L292.679 73.8387C297.086 82.618 297.856 92.7899 294.832 102.147C293.008 107.788 288.94 112.018 284.972 115.122C280.957 118.262 276.4 120.738 272.772 122.629L272.759 122.635L272.745 122.642L215.524 152.128L215.511 152.135L215.497 152.142C214.048 152.88 212.467 153.325 210.844 153.45L198.867 146.756ZM198.867 146.756L198.874 146.769L198.867 146.756ZM206.079 152.879C207.615 153.38 209.234 153.574 210.844 153.45L206.079 152.879ZM206.079 152.879C204.54 152.387 203.114 151.596 201.881 150.553C201.881 150.553 201.881 150.553 201.881 150.553L206.079 152.879Z" stroke="#404148" strokeWidth="13"/>
	<path d="M93.429 146.586C92.695 146.814 91.9229 146.894 91.1572 146.822C90.3914 146.75 89.647 146.526 88.9666 146.165L32.2637 115.694C25.1359 111.822 17.2987 106.051 14.9321 98.2719C12.5655 90.493 13.3492 82.099 17.1129 74.9133C20.9282 67.7445 27.4233 62.3946 35.174 60.0366C42.9248 57.6786 52.4819 59.4576 59.6432 63.287C66.8046 67.1163 67.8479 66.7711 69.0467 66.4419C70.2456 66.1126 75.5084 57.7919 75.5084 57.7919C79.3237 50.6231 87.1183 44.2336 94.869 41.8756C102.62 39.5176 110.994 40.3439 118.155 44.1732C125.283 48.0454 130.609 54.5808 132.975 62.3597C135.342 70.1386 130.791 79.6787 127.027 86.8645L96.9008 143.751C96.537 144.43 96.0431 145.03 95.4473 145.517C94.8515 146.003 94.1657 146.367 93.429 146.586Z" fill="#FF7673"/>
	<path d="M208.078 146.694C207.345 146.462 206.666 146.087 206.078 145.59C205.491 145.094 205.008 144.485 204.656 143.8L175.517 86.4012C171.878 79.1515 168.741 69.9378 171.242 62.201C173.743 54.4641 179.181 48.0217 186.374 44.2732C193.601 40.5682 201.988 39.8868 209.696 42.3784C217.405 44.87 224.234 51.7891 227.925 59.0227C231.616 66.2564 232.669 66.5689 233.841 66.9835C235.014 67.398 244.086 63.5741 244.086 63.5741C251.312 59.8691 261.36 59.0766 269.069 61.5682C276.778 64.0597 283.179 69.521 286.87 76.7546C290.509 84.0044 291.148 92.4107 288.647 100.147C286.146 107.884 276.962 113.116 269.768 116.864L212.547 146.35C211.86 146.7 211.112 146.91 210.345 146.97C209.578 147.029 208.808 146.935 208.078 146.694Z" fill="#FF7673"/>
	<path d="M48.957 100.786L84.9891 120.008" stroke="white" strokeWidth="12" strokeLinecap="round"/>
	<path d="M197.735 83.6996L216.331 120.058" stroke="white" strokeWidth="12" strokeLinecap="round"/>
	<path d="M70 181C79.6028 211.537 112.006 234 150.5 234C188.995 234 221.397 211.537 231 181H70Z" fill="#FF7673"/>
	<ellipse cx="147.628" cy="223.344" rx="51.0799" ry="13.5" transform="rotate(-0.433804 147.628 223.344)" fill="#FFA6A4"/>
	<path d="M94.6049 220.799C109.754 213.284 129.98 208.615 152.227 208.447C175.111 208.274 195.931 212.894 211.33 220.559" stroke="#404148" strokeWidth="11"/>
	<path d="M70 174.5C67.9302 174.5 65.9841 175.486 64.7596 177.155C63.535 178.823 63.1784 180.975 63.7994 182.95C74.391 216.631 109.652 240.5 150.5 240.5C191.348 240.5 226.609 216.631 237.201 182.95C237.822 180.975 237.465 178.823 236.24 177.155C235.016 175.486 233.07 174.5 231 174.5H70Z" stroke="#404148" strokeWidth="13" strokeLinejoin="round"/>
	</g>
	<defs>
	<clipPath id="clip0_595_231">
	<rect width="303" height="303" fill="white"/>
	</clipPath>
	</defs>
</svg>
