<svg width="303" height="303" viewBox="0 0 303 303" fill="none" xmlns="http://www.w3.org/2000/svg">
<circle cx="151" cy="152" r="139" fill="#FFAE4F"/>
<ellipse cx="151" cy="144.5" rx="139" ry="132.5" fill="#FFE15F"/>
<circle cx="151" cy="152" r="145" stroke="#404148" stroke-width="12"/>
<ellipse cx="91" cy="111.5" rx="15" ry="19.5" fill="#404148"/>
<ellipse cx="208" cy="111.5" rx="15" ry="19.5" fill="#404148"/>
<path d="M68 54C68 54 75.1199 45.1067 84.4211 41.8918C89.8947 39.9998 100 40 100 40" stroke="#404148" stroke-width="14" stroke-linecap="round"/>
<path d="M232 54C232 54 224.88 45.1067 215.579 41.8918C210.105 39.9998 200 40 200 40" stroke="#404148" stroke-width="14" stroke-linecap="round"/>
<path d="M195 189C195 215.51 174.629 237 149.5 237C124.371 237 104 215.51 104 189C104 162.49 124.371 141 149.5 141C174.629 141 195 162.49 195 189Z" fill="#FF7673"/>
<ellipse cx="149.5" cy="232.5" rx="23.5" ry="6.5" fill="#FFA6A4"/>
<path d="M116 231C116 229.4 124 227.058 128 226.087C134.601 224.111 142.034 223 149.895 223C157.757 223 165.19 224.111 171.791 226.087C176.194 227.558 184.1 229.4 182.5 231" stroke="#404148" stroke-width="13"/>
<path d="M149.5 243.5C178.542 243.5 201.5 218.768 201.5 189C201.5 159.232 178.542 134.5 149.5 134.5C120.458 134.5 97.5 159.232 97.5 189C97.5 218.768 120.458 243.5 149.5 243.5Z" stroke="#404148" stroke-width="13"/>
</svg>
